<svg xmlns="http://www.w3.org/2000/svg" xmlns:xlink="http://www.w3.org/1999/xlink" width="190" zoomAndPan="magnify" viewBox="0 0 142.5 30.000001" height="40" preserveAspectRatio="xMidYMid meet" version="1.0"><defs><g/></defs><g fill="#44eef4" fill-opacity="1"><g transform="translate(7.742699, 18.983898)"><g><path d="M 2.828125 1.859375 L 2.828125 1.625 C 2.828125 1.476562 2.757812 1.40625 2.625 1.40625 L 2.375 1.40625 C 2.238281 1.40625 2.171875 1.335938 2.171875 1.203125 L 2.171875 0.96875 C 2.171875 0.820312 2.097656 0.75 1.953125 0.75 L 1.71875 0.75 C 1.570312 0.75 1.5 0.679688 1.5 0.546875 L 1.5 -2.265625 C 1.5 -2.398438 1.429688 -2.46875 1.296875 -2.46875 L 1.046875 -2.46875 C 0.910156 -2.46875 0.84375 -2.539062 0.84375 -2.6875 L 0.84375 -2.921875 C 0.84375 -3.066406 0.769531 -3.140625 0.625 -3.140625 L 0.390625 -3.140625 C 0.242188 -3.140625 0.171875 -3.207031 0.171875 -3.34375 L 0.171875 -4.921875 C 0.171875 -5.054688 0.242188 -5.125 0.390625 -5.125 L 0.625 -5.125 C 0.769531 -5.125 0.84375 -5.191406 0.84375 -5.328125 L 0.84375 -5.578125 C 0.84375 -5.710938 0.910156 -5.78125 1.046875 -5.78125 L 1.296875 -5.78125 C 1.429688 -5.78125 1.5 -5.851562 1.5 -6 L 1.5 -8.796875 C 1.5 -8.941406 1.570312 -9.015625 1.71875 -9.015625 L 1.953125 -9.015625 C 2.097656 -9.015625 2.171875 -9.082031 2.171875 -9.21875 L 2.171875 -9.46875 C 2.171875 -9.601562 2.238281 -9.671875 2.375 -9.671875 L 2.625 -9.671875 C 2.757812 -9.671875 2.828125 -9.742188 2.828125 -9.890625 L 2.828125 -10.125 C 2.828125 -10.269531 2.894531 -10.34375 3.03125 -10.34375 L 3.9375 -10.34375 C 4.082031 -10.34375 4.15625 -10.269531 4.15625 -10.125 L 4.15625 -9.890625 C 4.15625 -9.742188 4.082031 -9.671875 3.9375 -9.671875 L 3.703125 -9.671875 C 3.554688 -9.671875 3.484375 -9.601562 3.484375 -9.46875 L 3.484375 -9.21875 C 3.484375 -9.082031 3.414062 -9.015625 3.28125 -9.015625 L 3.03125 -9.015625 C 2.894531 -9.015625 2.828125 -8.941406 2.828125 -8.796875 L 2.828125 -8.5625 C 2.828125 -8.414062 2.757812 -8.34375 2.625 -8.34375 L 2.375 -8.34375 C 2.238281 -8.34375 2.171875 -8.273438 2.171875 -8.140625 L 2.171875 -5.328125 C 2.171875 -5.191406 2.097656 -5.125 1.953125 -5.125 L 1.71875 -5.125 C 1.570312 -5.125 1.5 -5.054688 1.5 -4.921875 L 1.5 -4.671875 C 1.5 -4.535156 1.429688 -4.46875 1.296875 -4.46875 L 1.046875 -4.46875 C 0.910156 -4.46875 0.84375 -4.394531 0.84375 -4.25 L 0.84375 -4.015625 C 0.84375 -3.867188 0.910156 -3.796875 1.046875 -3.796875 L 1.296875 -3.796875 C 1.429688 -3.796875 1.5 -3.726562 1.5 -3.59375 L 1.5 -3.34375 C 1.5 -3.207031 1.570312 -3.140625 1.71875 -3.140625 L 1.953125 -3.140625 C 2.097656 -3.140625 2.171875 -3.066406 2.171875 -2.921875 L 2.171875 -0.125 C 2.171875 0.0195312 2.238281 0.09375 2.375 0.09375 L 2.625 0.09375 C 2.757812 0.09375 2.828125 0.160156 2.828125 0.296875 L 2.828125 0.546875 C 2.828125 0.679688 2.894531 0.75 3.03125 0.75 L 3.28125 0.75 C 3.414062 0.75 3.484375 0.820312 3.484375 0.96875 L 3.484375 1.203125 C 3.484375 1.335938 3.554688 1.40625 3.703125 1.40625 L 3.9375 1.40625 C 4.082031 1.40625 4.15625 1.476562 4.15625 1.625 L 4.15625 1.859375 C 4.15625 2.003906 4.082031 2.078125 3.9375 2.078125 L 3.03125 2.078125 C 2.894531 2.078125 2.828125 2.003906 2.828125 1.859375 Z M 2.828125 1.859375 "/></g></g></g><g fill="#e20684" fill-opacity="1"><g transform="translate(12.083541, 18.983898)"><g><path d="M 1.15625 -0.203125 L 1.15625 -0.453125 C 1.15625 -0.585938 1.085938 -0.65625 0.953125 -0.65625 L 0.703125 -0.65625 C 0.566406 -0.65625 0.5 -0.726562 0.5 -0.875 L 0.5 -2.765625 C 0.5 -2.910156 0.566406 -2.984375 0.703125 -2.984375 L 3.265625 -2.984375 C 3.410156 -2.984375 3.484375 -2.910156 3.484375 -2.765625 L 3.484375 -0.875 C 3.484375 -0.726562 3.550781 -0.65625 3.6875 -0.65625 L 3.9375 -0.65625 C 4.070312 -0.65625 4.140625 -0.726562 4.140625 -0.875 L 4.140625 -1.109375 C 4.140625 -1.253906 4.210938 -1.328125 4.359375 -1.328125 L 4.71875 -1.328125 C 4.851562 -1.328125 4.921875 -1.394531 4.921875 -1.53125 L 4.921875 -4.171875 C 4.921875 -4.304688 4.851562 -4.375 4.71875 -4.375 L 4.46875 -4.375 C 4.332031 -4.375 4.265625 -4.441406 4.265625 -4.578125 L 4.265625 -4.828125 C 4.265625 -4.960938 4.191406 -5.03125 4.046875 -5.03125 L 2.15625 -5.03125 C 2.007812 -5.03125 1.9375 -5.101562 1.9375 -5.25 L 1.9375 -5.484375 C 1.9375 -5.628906 1.867188 -5.703125 1.734375 -5.703125 L 1.484375 -5.703125 C 1.347656 -5.703125 1.28125 -5.769531 1.28125 -5.90625 L 1.28125 -6.140625 C 1.28125 -6.285156 1.207031 -6.359375 1.0625 -6.359375 L 0.84375 -6.359375 C 0.695312 -6.359375 0.625 -6.429688 0.625 -6.578125 L 0.625 -8.796875 C 0.625 -8.941406 0.695312 -9.015625 0.84375 -9.015625 L 1.0625 -9.015625 C 1.207031 -9.015625 1.28125 -9.085938 1.28125 -9.234375 L 1.28125 -9.46875 C 1.28125 -9.601562 1.347656 -9.671875 1.484375 -9.671875 L 1.734375 -9.671875 C 1.867188 -9.671875 1.9375 -9.742188 1.9375 -9.890625 L 1.9375 -10.125 C 1.9375 -10.269531 2.007812 -10.34375 2.15625 -10.34375 L 6.265625 -10.34375 C 6.398438 -10.34375 6.46875 -10.269531 6.46875 -10.125 L 6.46875 -9.890625 C 6.46875 -9.742188 6.539062 -9.671875 6.6875 -9.671875 L 7.484375 -9.671875 C 7.617188 -9.671875 7.6875 -9.601562 7.6875 -9.46875 L 7.6875 -7.5625 C 7.6875 -7.425781 7.617188 -7.359375 7.484375 -7.359375 L 5.796875 -7.359375 C 5.660156 -7.359375 5.59375 -7.425781 5.59375 -7.5625 L 5.59375 -7.8125 C 5.59375 -7.945312 5.519531 -8.015625 5.375 -8.015625 L 5.140625 -8.015625 C 4.992188 -8.015625 4.921875 -8.085938 4.921875 -8.234375 L 4.921875 -9.46875 C 4.921875 -9.601562 4.851562 -9.671875 4.71875 -9.671875 L 4.46875 -9.671875 C 4.332031 -9.671875 4.265625 -9.601562 4.265625 -9.46875 L 4.265625 -9.21875 C 4.265625 -9.082031 4.191406 -9.015625 4.046875 -9.015625 L 3.8125 -9.015625 C 3.664062 -9.015625 3.59375 -8.941406 3.59375 -8.796875 L 3.59375 -6.578125 C 3.59375 -6.429688 3.664062 -6.359375 3.8125 -6.359375 L 4.171875 -6.359375 C 4.304688 -6.359375 4.375 -6.289062 4.375 -6.15625 L 4.375 -5.90625 C 4.375 -5.769531 4.441406 -5.703125 4.578125 -5.703125 L 6.375 -5.703125 C 6.507812 -5.703125 6.578125 -5.628906 6.578125 -5.484375 L 6.578125 -5.25 C 6.578125 -5.101562 6.648438 -5.03125 6.796875 -5.03125 L 7.03125 -5.03125 C 7.175781 -5.03125 7.25 -4.960938 7.25 -4.828125 L 7.25 -4.59375 C 7.25 -4.445312 7.320312 -4.375 7.46875 -4.375 L 7.6875 -4.375 C 7.832031 -4.375 7.90625 -4.300781 7.90625 -4.15625 L 7.90625 -1.546875 C 7.90625 -1.398438 7.832031 -1.328125 7.6875 -1.328125 L 7.46875 -1.328125 C 7.320312 -1.328125 7.25 -1.253906 7.25 -1.109375 L 7.25 -0.875 C 7.25 -0.726562 7.175781 -0.65625 7.03125 -0.65625 L 6.796875 -0.65625 C 6.648438 -0.65625 6.578125 -0.585938 6.578125 -0.453125 L 6.578125 -0.203125 C 6.578125 -0.0664062 6.515625 0 6.390625 0 L 1.359375 0 C 1.222656 0 1.15625 -0.0664062 1.15625 -0.203125 Z M 1.15625 -0.203125 "/></g></g></g><g fill="#e20684" fill-opacity="1"><g transform="translate(20.59726, 18.983898)"><g><path d="M 4.65625 -3.53125 L 3.75 -3.53125 C 3.601562 -3.53125 3.53125 -3.457031 3.53125 -3.3125 L 3.53125 -0.875 C 3.53125 -0.726562 3.601562 -0.65625 3.75 -0.65625 L 3.984375 -0.65625 C 4.128906 -0.65625 4.203125 -0.726562 4.203125 -0.875 L 4.203125 -1.109375 C 4.203125 -1.253906 4.269531 -1.328125 4.40625 -1.328125 L 4.65625 -1.328125 C 4.789062 -1.328125 4.859375 -1.394531 4.859375 -1.53125 L 4.859375 -3.3125 C 4.859375 -3.457031 4.789062 -3.53125 4.65625 -3.53125 Z M 1.21875 -0.203125 L 1.21875 -0.453125 C 1.21875 -0.585938 1.144531 -0.65625 1 -0.65625 L 0.765625 -0.65625 C 0.617188 -0.65625 0.546875 -0.726562 0.546875 -0.875 L 0.546875 -3.3125 C 0.546875 -3.457031 0.617188 -3.53125 0.765625 -3.53125 L 1 -3.53125 C 1.144531 -3.53125 1.21875 -3.597656 1.21875 -3.734375 L 1.21875 -3.984375 C 1.21875 -4.117188 1.285156 -4.1875 1.421875 -4.1875 L 3.984375 -4.1875 C 4.128906 -4.1875 4.203125 -4.253906 4.203125 -4.390625 L 4.203125 -4.640625 C 4.203125 -4.773438 4.269531 -4.84375 4.40625 -4.84375 L 4.984375 -4.84375 C 5.117188 -4.84375 5.1875 -4.914062 5.1875 -5.0625 L 5.1875 -6.859375 C 5.1875 -6.992188 5.117188 -7.0625 4.984375 -7.0625 L 4.40625 -7.0625 C 4.269531 -7.0625 4.203125 -6.992188 4.203125 -6.859375 L 4.203125 -5.953125 C 4.203125 -5.816406 4.128906 -5.75 3.984375 -5.75 L 3.75 -5.75 C 3.601562 -5.75 3.53125 -5.675781 3.53125 -5.53125 L 3.53125 -4.953125 C 3.53125 -4.816406 3.460938 -4.75 3.328125 -4.75 L 1.09375 -4.75 C 0.957031 -4.75 0.890625 -4.816406 0.890625 -4.953125 L 0.890625 -6.859375 C 0.890625 -6.992188 0.957031 -7.0625 1.09375 -7.0625 L 1.5 -7.0625 C 1.644531 -7.0625 1.71875 -7.132812 1.71875 -7.28125 L 1.71875 -7.515625 C 1.71875 -7.660156 1.785156 -7.734375 1.921875 -7.734375 L 6.96875 -7.734375 C 7.113281 -7.734375 7.1875 -7.660156 7.1875 -7.515625 L 7.1875 -7.28125 C 7.1875 -7.132812 7.253906 -7.0625 7.390625 -7.0625 L 7.640625 -7.0625 C 7.773438 -7.0625 7.84375 -6.992188 7.84375 -6.859375 L 7.84375 -0.203125 C 7.84375 -0.0664062 7.773438 0 7.640625 0 L 5.734375 0 C 5.597656 0 5.53125 -0.0664062 5.53125 -0.203125 L 5.53125 -0.453125 C 5.53125 -0.585938 5.457031 -0.65625 5.3125 -0.65625 L 5.078125 -0.65625 C 4.929688 -0.65625 4.859375 -0.585938 4.859375 -0.453125 L 4.859375 -0.203125 C 4.859375 -0.0664062 4.789062 0 4.65625 0 L 1.421875 0 C 1.285156 0 1.21875 -0.0664062 1.21875 -0.203125 Z M 1.21875 -0.203125 "/></g></g></g><g fill="#e20684" fill-opacity="1"><g transform="translate(29.210363, 18.983898)"><g><path d="M 4.203125 -6.40625 L 3.96875 -6.40625 C 3.820312 -6.40625 3.75 -6.335938 3.75 -6.203125 L 3.75 -0.875 C 3.75 -0.726562 3.820312 -0.65625 3.96875 -0.65625 L 4.203125 -0.65625 C 4.347656 -0.65625 4.421875 -0.726562 4.421875 -0.875 L 4.421875 -1.109375 C 4.421875 -1.253906 4.488281 -1.328125 4.625 -1.328125 L 4.875 -1.328125 C 5.007812 -1.328125 5.078125 -1.394531 5.078125 -1.53125 L 5.078125 -6.859375 C 5.078125 -6.992188 5.007812 -7.0625 4.875 -7.0625 L 4.625 -7.0625 C 4.488281 -7.0625 4.421875 -6.992188 4.421875 -6.859375 L 4.421875 -6.609375 C 4.421875 -6.472656 4.347656 -6.40625 4.203125 -6.40625 Z M 0.765625 -0.203125 L 0.765625 -10.28125 C 0.765625 -10.425781 0.835938 -10.5 0.984375 -10.5 L 3.546875 -10.5 C 3.679688 -10.5 3.75 -10.425781 3.75 -10.28125 L 3.75 -7.9375 C 3.75 -7.800781 3.820312 -7.734375 3.96875 -7.734375 L 6.53125 -7.734375 C 6.664062 -7.734375 6.734375 -7.660156 6.734375 -7.515625 L 6.734375 -7.28125 C 6.734375 -7.132812 6.804688 -7.0625 6.953125 -7.0625 L 7.1875 -7.0625 C 7.332031 -7.0625 7.40625 -6.992188 7.40625 -6.859375 L 7.40625 -6.609375 C 7.40625 -6.472656 7.472656 -6.40625 7.609375 -6.40625 L 7.859375 -6.40625 C 7.992188 -6.40625 8.0625 -6.335938 8.0625 -6.203125 L 8.0625 -0.890625 C 8.0625 -0.742188 7.992188 -0.671875 7.859375 -0.671875 L 7.609375 -0.671875 C 7.472656 -0.671875 7.40625 -0.601562 7.40625 -0.46875 L 7.40625 -0.203125 C 7.40625 -0.0664062 7.332031 0 7.1875 0 L 0.984375 0 C 0.835938 0 0.765625 -0.0664062 0.765625 -0.203125 Z M 0.765625 -0.203125 "/></g></g></g><g fill="#e20684" fill-opacity="1"><g transform="translate(38.044308, 18.983898)"><g><path d="M 0.765625 -0.203125 L 0.765625 -7.515625 C 0.765625 -7.660156 0.835938 -7.734375 0.984375 -7.734375 L 2.546875 -7.734375 C 2.691406 -7.734375 2.765625 -7.660156 2.765625 -7.515625 L 2.765625 -6.609375 C 2.765625 -6.472656 2.832031 -6.40625 2.96875 -6.40625 L 3.21875 -6.40625 C 3.351562 -6.40625 3.421875 -6.472656 3.421875 -6.609375 L 3.421875 -6.859375 C 3.421875 -6.992188 3.492188 -7.0625 3.640625 -7.0625 L 3.875 -7.0625 C 4.019531 -7.0625 4.09375 -7.132812 4.09375 -7.28125 L 4.09375 -7.515625 C 4.09375 -7.660156 4.160156 -7.734375 4.296875 -7.734375 L 6.203125 -7.734375 C 6.335938 -7.734375 6.40625 -7.660156 6.40625 -7.515625 L 6.40625 -7.28125 C 6.40625 -7.132812 6.472656 -7.0625 6.609375 -7.0625 L 6.859375 -7.0625 C 6.921875 -7.0625 6.953125 -7.0625 6.953125 -7.0625 C 6.953125 -7.0625 6.921875 -7.0625 6.859375 -7.0625 L 6.609375 -7.0625 C 6.554688 -7.0625 6.53125 -7.0625 6.53125 -7.0625 C 6.53125 -7.0625 6.554688 -7.0625 6.609375 -7.0625 L 6.859375 -7.0625 C 6.992188 -7.0625 7.0625 -6.992188 7.0625 -6.859375 L 7.0625 -5.328125 C 7.0625 -5.191406 6.992188 -5.125 6.859375 -5.125 L 4.625 -5.125 C 4.488281 -5.125 4.421875 -5.191406 4.421875 -5.328125 L 4.421875 -6.203125 C 4.421875 -6.335938 4.347656 -6.40625 4.203125 -6.40625 L 3.96875 -6.40625 C 3.820312 -6.40625 3.75 -6.335938 3.75 -6.203125 L 3.75 -0.203125 C 3.75 -0.0664062 3.679688 0 3.546875 0 L 0.984375 0 C 0.835938 0 0.765625 -0.0664062 0.765625 -0.203125 Z M 0.765625 -0.203125 "/></g></g></g><g fill="#e20684" fill-opacity="1"><g transform="translate(45.332319, 18.983898)"><g><path d="M 0.765625 -0.203125 L 0.765625 -7.515625 C 0.765625 -7.660156 0.835938 -7.734375 0.984375 -7.734375 L 3.546875 -7.734375 C 3.679688 -7.734375 3.75 -7.660156 3.75 -7.515625 L 3.75 -0.203125 C 3.75 -0.0664062 3.679688 0 3.546875 0 L 0.984375 0 C 0.835938 0 0.765625 -0.0664062 0.765625 -0.203125 Z M 1.109375 -8.609375 L 1.109375 -8.625 C 1.109375 -8.769531 1.03125 -8.84375 0.875 -8.84375 C 0.726562 -8.84375 0.65625 -8.910156 0.65625 -9.046875 L 0.65625 -10.0625 C 0.65625 -10.207031 0.734375 -10.28125 0.890625 -10.28125 C 1.035156 -10.28125 1.109375 -10.351562 1.109375 -10.5 C 1.109375 -10.644531 1.175781 -10.71875 1.3125 -10.71875 L 3.21875 -10.71875 C 3.351562 -10.71875 3.421875 -10.640625 3.421875 -10.484375 C 3.421875 -10.347656 3.5 -10.28125 3.65625 -10.28125 C 3.789062 -10.28125 3.859375 -10.207031 3.859375 -10.0625 L 3.859375 -9.046875 C 3.859375 -8.910156 3.785156 -8.84375 3.640625 -8.84375 C 3.492188 -8.84375 3.421875 -8.765625 3.421875 -8.609375 C 3.421875 -8.460938 3.351562 -8.390625 3.21875 -8.390625 L 1.3125 -8.390625 C 1.175781 -8.390625 1.109375 -8.460938 1.109375 -8.609375 Z M 1.109375 -8.609375 "/></g></g></g><g fill="#e20684" fill-opacity="1"><g transform="translate(49.859718, 18.983898)"><g><path d="M 0.765625 -0.203125 L 0.765625 -7.515625 C 0.765625 -7.660156 0.835938 -7.734375 0.984375 -7.734375 L 2.546875 -7.734375 C 2.691406 -7.734375 2.765625 -7.660156 2.765625 -7.515625 L 2.765625 -6.609375 C 2.765625 -6.472656 2.832031 -6.40625 2.96875 -6.40625 L 3.21875 -6.40625 C 3.351562 -6.40625 3.421875 -6.472656 3.421875 -6.609375 L 3.421875 -6.859375 C 3.421875 -6.992188 3.492188 -7.0625 3.640625 -7.0625 L 3.875 -7.0625 C 4.019531 -7.0625 4.09375 -7.132812 4.09375 -7.28125 L 4.09375 -7.515625 C 4.09375 -7.660156 4.160156 -7.734375 4.296875 -7.734375 L 7.1875 -7.734375 C 7.332031 -7.734375 7.40625 -7.660156 7.40625 -7.515625 L 7.40625 -7.28125 C 7.40625 -7.132812 7.472656 -7.0625 7.609375 -7.0625 L 7.859375 -7.0625 C 7.910156 -7.0625 7.9375 -7.0625 7.9375 -7.0625 C 7.9375 -7.0625 7.910156 -7.0625 7.859375 -7.0625 L 7.609375 -7.0625 C 7.546875 -7.0625 7.515625 -7.0625 7.515625 -7.0625 C 7.515625 -7.0625 7.546875 -7.0625 7.609375 -7.0625 L 7.859375 -7.0625 C 7.992188 -7.0625 8.0625 -6.992188 8.0625 -6.859375 L 8.0625 -0.203125 C 8.0625 -0.0664062 7.992188 0 7.859375 0 L 5.296875 0 C 5.148438 0 5.078125 -0.0664062 5.078125 -0.203125 L 5.078125 -6.859375 C 5.078125 -6.992188 5.007812 -7.0625 4.875 -7.0625 L 4.625 -7.0625 C 4.488281 -7.0625 4.421875 -6.992188 4.421875 -6.859375 L 4.421875 -6.609375 C 4.421875 -6.472656 4.347656 -6.40625 4.203125 -6.40625 L 3.96875 -6.40625 C 3.820312 -6.40625 3.75 -6.335938 3.75 -6.203125 L 3.75 -0.203125 C 3.75 -0.0664062 3.679688 0 3.546875 0 L 0.984375 0 C 0.835938 0 0.765625 -0.0664062 0.765625 -0.203125 Z M 0.765625 -0.203125 "/></g></g></g><g fill="#e20684" fill-opacity="1"><g transform="translate(58.693663, 18.983898)"><g><path d="M 4.65625 -3.53125 L 3.75 -3.53125 C 3.601562 -3.53125 3.53125 -3.457031 3.53125 -3.3125 L 3.53125 -0.875 C 3.53125 -0.726562 3.601562 -0.65625 3.75 -0.65625 L 3.984375 -0.65625 C 4.128906 -0.65625 4.203125 -0.726562 4.203125 -0.875 L 4.203125 -1.109375 C 4.203125 -1.253906 4.269531 -1.328125 4.40625 -1.328125 L 4.65625 -1.328125 C 4.789062 -1.328125 4.859375 -1.394531 4.859375 -1.53125 L 4.859375 -3.3125 C 4.859375 -3.457031 4.789062 -3.53125 4.65625 -3.53125 Z M 1.21875 -0.203125 L 1.21875 -0.453125 C 1.21875 -0.585938 1.144531 -0.65625 1 -0.65625 L 0.765625 -0.65625 C 0.617188 -0.65625 0.546875 -0.726562 0.546875 -0.875 L 0.546875 -3.3125 C 0.546875 -3.457031 0.617188 -3.53125 0.765625 -3.53125 L 1 -3.53125 C 1.144531 -3.53125 1.21875 -3.597656 1.21875 -3.734375 L 1.21875 -3.984375 C 1.21875 -4.117188 1.285156 -4.1875 1.421875 -4.1875 L 3.984375 -4.1875 C 4.128906 -4.1875 4.203125 -4.253906 4.203125 -4.390625 L 4.203125 -4.640625 C 4.203125 -4.773438 4.269531 -4.84375 4.40625 -4.84375 L 4.984375 -4.84375 C 5.117188 -4.84375 5.1875 -4.914062 5.1875 -5.0625 L 5.1875 -6.859375 C 5.1875 -6.992188 5.117188 -7.0625 4.984375 -7.0625 L 4.40625 -7.0625 C 4.269531 -7.0625 4.203125 -6.992188 4.203125 -6.859375 L 4.203125 -5.953125 C 4.203125 -5.816406 4.128906 -5.75 3.984375 -5.75 L 3.75 -5.75 C 3.601562 -5.75 3.53125 -5.675781 3.53125 -5.53125 L 3.53125 -4.953125 C 3.53125 -4.816406 3.460938 -4.75 3.328125 -4.75 L 1.09375 -4.75 C 0.957031 -4.75 0.890625 -4.816406 0.890625 -4.953125 L 0.890625 -6.859375 C 0.890625 -6.992188 0.957031 -7.0625 1.09375 -7.0625 L 1.5 -7.0625 C 1.644531 -7.0625 1.71875 -7.132812 1.71875 -7.28125 L 1.71875 -7.515625 C 1.71875 -7.660156 1.785156 -7.734375 1.921875 -7.734375 L 6.96875 -7.734375 C 7.113281 -7.734375 7.1875 -7.660156 7.1875 -7.515625 L 7.1875 -7.28125 C 7.1875 -7.132812 7.253906 -7.0625 7.390625 -7.0625 L 7.640625 -7.0625 C 7.773438 -7.0625 7.84375 -6.992188 7.84375 -6.859375 L 7.84375 -0.203125 C 7.84375 -0.0664062 7.773438 0 7.640625 0 L 5.734375 0 C 5.597656 0 5.53125 -0.0664062 5.53125 -0.203125 L 5.53125 -0.453125 C 5.53125 -0.585938 5.457031 -0.65625 5.3125 -0.65625 L 5.078125 -0.65625 C 4.929688 -0.65625 4.859375 -0.585938 4.859375 -0.453125 L 4.859375 -0.203125 C 4.859375 -0.0664062 4.789062 0 4.65625 0 L 1.421875 0 C 1.285156 0 1.21875 -0.0664062 1.21875 -0.203125 Z M 1.21875 -0.203125 "/></g></g></g><g fill="#e20684" fill-opacity="1"><g transform="translate(67.306766, 18.983898)"><g/></g></g><g fill="#e20684" fill-opacity="1"><g transform="translate(70.067377, 18.983898)"><g><path d="M 1 -0.203125 L 1 -0.453125 C 1 -0.585938 0.925781 -0.65625 0.78125 -0.65625 L 0.546875 -0.65625 C 0.398438 -0.65625 0.328125 -0.726562 0.328125 -0.875 L 0.328125 -2.765625 C 0.328125 -2.910156 0.398438 -2.984375 0.546875 -2.984375 L 2.4375 -2.984375 C 2.570312 -2.984375 2.640625 -2.910156 2.640625 -2.765625 L 2.640625 -1.53125 C 2.640625 -1.394531 2.707031 -1.328125 2.84375 -1.328125 L 3.109375 -1.328125 C 3.242188 -1.328125 3.3125 -1.253906 3.3125 -1.109375 L 3.3125 -0.875 C 3.3125 -0.726562 3.382812 -0.65625 3.53125 -0.65625 L 3.765625 -0.65625 C 3.910156 -0.65625 3.984375 -0.726562 3.984375 -0.875 L 3.984375 -10.125 C 3.984375 -10.269531 4.050781 -10.34375 4.1875 -10.34375 L 6.75 -10.34375 C 6.882812 -10.34375 6.953125 -10.269531 6.953125 -10.125 L 6.953125 -0.875 C 6.953125 -0.726562 6.882812 -0.65625 6.75 -0.65625 L 6.5 -0.65625 C 6.363281 -0.65625 6.296875 -0.585938 6.296875 -0.453125 L 6.296875 -0.203125 C 6.296875 -0.0664062 6.226562 0 6.09375 0 L 1.203125 0 C 1.066406 0 1 -0.0664062 1 -0.203125 Z M 1 -0.203125 "/></g></g></g><g fill="#e20684" fill-opacity="1"><g transform="translate(77.797085, 18.983898)"><g><path d="M 4.65625 -3.53125 L 3.75 -3.53125 C 3.601562 -3.53125 3.53125 -3.457031 3.53125 -3.3125 L 3.53125 -0.875 C 3.53125 -0.726562 3.601562 -0.65625 3.75 -0.65625 L 3.984375 -0.65625 C 4.128906 -0.65625 4.203125 -0.726562 4.203125 -0.875 L 4.203125 -1.109375 C 4.203125 -1.253906 4.269531 -1.328125 4.40625 -1.328125 L 4.65625 -1.328125 C 4.789062 -1.328125 4.859375 -1.394531 4.859375 -1.53125 L 4.859375 -3.3125 C 4.859375 -3.457031 4.789062 -3.53125 4.65625 -3.53125 Z M 1.21875 -0.203125 L 1.21875 -0.453125 C 1.21875 -0.585938 1.144531 -0.65625 1 -0.65625 L 0.765625 -0.65625 C 0.617188 -0.65625 0.546875 -0.726562 0.546875 -0.875 L 0.546875 -3.3125 C 0.546875 -3.457031 0.617188 -3.53125 0.765625 -3.53125 L 1 -3.53125 C 1.144531 -3.53125 1.21875 -3.597656 1.21875 -3.734375 L 1.21875 -3.984375 C 1.21875 -4.117188 1.285156 -4.1875 1.421875 -4.1875 L 3.984375 -4.1875 C 4.128906 -4.1875 4.203125 -4.253906 4.203125 -4.390625 L 4.203125 -4.640625 C 4.203125 -4.773438 4.269531 -4.84375 4.40625 -4.84375 L 4.984375 -4.84375 C 5.117188 -4.84375 5.1875 -4.914062 5.1875 -5.0625 L 5.1875 -6.859375 C 5.1875 -6.992188 5.117188 -7.0625 4.984375 -7.0625 L 4.40625 -7.0625 C 4.269531 -7.0625 4.203125 -6.992188 4.203125 -6.859375 L 4.203125 -5.953125 C 4.203125 -5.816406 4.128906 -5.75 3.984375 -5.75 L 3.75 -5.75 C 3.601562 -5.75 3.53125 -5.675781 3.53125 -5.53125 L 3.53125 -4.953125 C 3.53125 -4.816406 3.460938 -4.75 3.328125 -4.75 L 1.09375 -4.75 C 0.957031 -4.75 0.890625 -4.816406 0.890625 -4.953125 L 0.890625 -6.859375 C 0.890625 -6.992188 0.957031 -7.0625 1.09375 -7.0625 L 1.5 -7.0625 C 1.644531 -7.0625 1.71875 -7.132812 1.71875 -7.28125 L 1.71875 -7.515625 C 1.71875 -7.660156 1.785156 -7.734375 1.921875 -7.734375 L 6.96875 -7.734375 C 7.113281 -7.734375 7.1875 -7.660156 7.1875 -7.515625 L 7.1875 -7.28125 C 7.1875 -7.132812 7.253906 -7.0625 7.390625 -7.0625 L 7.640625 -7.0625 C 7.773438 -7.0625 7.84375 -6.992188 7.84375 -6.859375 L 7.84375 -0.203125 C 7.84375 -0.0664062 7.773438 0 7.640625 0 L 5.734375 0 C 5.597656 0 5.53125 -0.0664062 5.53125 -0.203125 L 5.53125 -0.453125 C 5.53125 -0.585938 5.457031 -0.65625 5.3125 -0.65625 L 5.078125 -0.65625 C 4.929688 -0.65625 4.859375 -0.585938 4.859375 -0.453125 L 4.859375 -0.203125 C 4.859375 -0.0664062 4.789062 0 4.65625 0 L 1.421875 0 C 1.285156 0 1.21875 -0.0664062 1.21875 -0.203125 Z M 1.21875 -0.203125 "/></g></g></g><g fill="#e20684" fill-opacity="1"><g transform="translate(86.410188, 18.983898)"><g><path d="M 2.09375 -0.203125 L 2.09375 -0.453125 C 2.09375 -0.585938 2.023438 -0.65625 1.890625 -0.65625 L 1.640625 -0.65625 C 1.503906 -0.65625 1.4375 -0.726562 1.4375 -0.875 L 1.4375 -1.109375 C 1.4375 -1.253906 1.363281 -1.328125 1.21875 -1.328125 L 0.984375 -1.328125 C 0.835938 -1.328125 0.765625 -1.394531 0.765625 -1.53125 L 0.765625 -6.203125 C 0.765625 -6.335938 0.835938 -6.40625 0.984375 -6.40625 L 1.21875 -6.40625 C 1.363281 -6.40625 1.4375 -6.472656 1.4375 -6.609375 L 1.4375 -6.859375 C 1.4375 -6.992188 1.503906 -7.0625 1.640625 -7.0625 L 1.890625 -7.0625 C 2.023438 -7.0625 2.09375 -7.132812 2.09375 -7.28125 L 2.09375 -7.515625 C 2.09375 -7.660156 2.164062 -7.734375 2.3125 -7.734375 L 6.53125 -7.734375 C 6.664062 -7.734375 6.734375 -7.660156 6.734375 -7.515625 L 6.734375 -7.28125 C 6.734375 -7.132812 6.804688 -7.0625 6.953125 -7.0625 L 7.1875 -7.0625 C 7.332031 -7.0625 7.40625 -6.992188 7.40625 -6.859375 L 7.40625 -6.609375 C 7.40625 -6.472656 7.472656 -6.40625 7.609375 -6.40625 L 7.859375 -6.40625 C 7.992188 -6.40625 8.0625 -6.335938 8.0625 -6.203125 L 8.0625 -4.984375 C 8.0625 -4.835938 7.992188 -4.765625 7.859375 -4.765625 L 5.296875 -4.765625 C 5.148438 -4.765625 5.078125 -4.835938 5.078125 -4.984375 L 5.078125 -6.859375 C 5.078125 -6.992188 5.007812 -7.0625 4.875 -7.0625 L 4.625 -7.0625 C 4.488281 -7.0625 4.421875 -6.992188 4.421875 -6.859375 L 4.421875 -6.609375 C 4.421875 -6.472656 4.347656 -6.40625 4.203125 -6.40625 L 3.96875 -6.40625 C 3.820312 -6.40625 3.75 -6.335938 3.75 -6.203125 L 3.75 -0.875 C 3.75 -0.726562 3.820312 -0.65625 3.96875 -0.65625 L 4.203125 -0.65625 C 4.347656 -0.65625 4.421875 -0.726562 4.421875 -0.875 L 4.421875 -1.109375 C 4.421875 -1.253906 4.488281 -1.328125 4.625 -1.328125 L 4.875 -1.328125 C 5.007812 -1.328125 5.078125 -1.394531 5.078125 -1.53125 L 5.078125 -2.4375 C 5.078125 -2.582031 5.148438 -2.65625 5.296875 -2.65625 L 7.859375 -2.65625 C 7.992188 -2.65625 8.0625 -2.582031 8.0625 -2.4375 L 8.0625 -1.53125 C 8.0625 -1.394531 7.992188 -1.328125 7.859375 -1.328125 L 7.609375 -1.328125 C 7.472656 -1.328125 7.40625 -1.253906 7.40625 -1.109375 L 7.40625 -0.875 C 7.40625 -0.726562 7.332031 -0.65625 7.1875 -0.65625 L 6.953125 -0.65625 C 6.804688 -0.65625 6.734375 -0.585938 6.734375 -0.453125 L 6.734375 -0.203125 C 6.734375 -0.0664062 6.664062 0 6.53125 0 L 2.3125 0 C 2.164062 0 2.09375 -0.0664062 2.09375 -0.203125 Z M 2.09375 -0.203125 "/></g></g></g><g fill="#e20684" fill-opacity="1"><g transform="translate(95.02329, 18.983898)"><g><path d="M 0.765625 -0.203125 L 0.765625 -10.46875 C 0.765625 -10.601562 0.835938 -10.671875 0.984375 -10.671875 L 3.546875 -10.671875 C 3.679688 -10.671875 3.75 -10.601562 3.75 -10.46875 L 3.75 -4.734375 C 3.75 -4.597656 3.820312 -4.53125 3.96875 -4.53125 L 4.203125 -4.53125 C 4.347656 -4.53125 4.421875 -4.597656 4.421875 -4.734375 L 4.421875 -4.984375 C 4.421875 -5.117188 4.488281 -5.1875 4.625 -5.1875 L 4.875 -5.1875 C 5.007812 -5.1875 5.078125 -5.257812 5.078125 -5.40625 L 5.078125 -7.515625 C 5.078125 -7.660156 5.148438 -7.734375 5.296875 -7.734375 L 7.859375 -7.734375 C 7.992188 -7.734375 8.0625 -7.660156 8.0625 -7.515625 L 8.0625 -4.734375 C 8.0625 -4.597656 7.992188 -4.53125 7.859375 -4.53125 L 5.953125 -4.53125 C 5.816406 -4.53125 5.75 -4.457031 5.75 -4.3125 L 5.75 -4.078125 C 5.75 -3.929688 5.816406 -3.859375 5.953125 -3.859375 L 7.1875 -3.859375 C 7.332031 -3.859375 7.40625 -3.789062 7.40625 -3.65625 L 7.40625 -3.40625 C 7.40625 -3.269531 7.472656 -3.203125 7.609375 -3.203125 L 7.859375 -3.203125 C 7.992188 -3.203125 8.0625 -3.132812 8.0625 -3 L 8.0625 -0.203125 C 8.0625 -0.0664062 7.992188 0 7.859375 0 L 5.296875 0 C 5.148438 0 5.078125 -0.0664062 5.078125 -0.203125 L 5.078125 -3 C 5.078125 -3.132812 5.007812 -3.203125 4.875 -3.203125 L 4.625 -3.203125 C 4.488281 -3.203125 4.421875 -3.269531 4.421875 -3.40625 L 4.421875 -3.65625 C 4.421875 -3.789062 4.347656 -3.859375 4.203125 -3.859375 L 3.96875 -3.859375 C 3.820312 -3.859375 3.75 -3.789062 3.75 -3.65625 L 3.75 -0.203125 C 3.75 -0.0664062 3.679688 0 3.546875 0 L 0.984375 0 C 0.835938 0 0.765625 -0.0664062 0.765625 -0.203125 Z M 0.765625 -0.203125 "/></g></g></g><g fill="#e20684" fill-opacity="1"><g transform="translate(103.636393, 18.983898)"><g><path d="M 1.328125 -0.203125 L 1.328125 -0.453125 C 1.328125 -0.585938 1.253906 -0.65625 1.109375 -0.65625 L 0.875 -0.65625 C 0.726562 -0.65625 0.65625 -0.726562 0.65625 -0.875 L 0.65625 -2.765625 C 0.65625 -2.910156 0.726562 -2.984375 0.875 -2.984375 L 3.4375 -2.984375 C 3.570312 -2.984375 3.640625 -2.910156 3.640625 -2.765625 L 3.640625 -0.875 C 3.640625 -0.726562 3.710938 -0.65625 3.859375 -0.65625 L 4.09375 -0.65625 C 4.238281 -0.65625 4.3125 -0.726562 4.3125 -0.875 L 4.3125 -1.109375 C 4.3125 -1.253906 4.378906 -1.328125 4.515625 -1.328125 L 4.765625 -1.328125 C 4.910156 -1.328125 4.984375 -1.394531 4.984375 -1.53125 L 4.984375 -2.640625 C 4.984375 -2.773438 4.910156 -2.84375 4.765625 -2.84375 L 4.53125 -2.84375 C 4.382812 -2.84375 4.3125 -2.914062 4.3125 -3.0625 L 4.3125 -3.296875 C 4.3125 -3.441406 4.242188 -3.515625 4.109375 -3.515625 L 1.53125 -3.515625 C 1.394531 -3.515625 1.328125 -3.582031 1.328125 -3.71875 L 1.328125 -3.96875 C 1.328125 -4.101562 1.253906 -4.171875 1.109375 -4.171875 L 0.875 -4.171875 C 0.726562 -4.171875 0.65625 -4.242188 0.65625 -4.390625 L 0.65625 -6.859375 C 0.65625 -6.992188 0.726562 -7.0625 0.875 -7.0625 L 1.03125 -7.0625 C 1.175781 -7.0625 1.25 -7.132812 1.25 -7.28125 L 1.25 -7.515625 C 1.25 -7.660156 1.316406 -7.734375 1.453125 -7.734375 L 6.96875 -7.734375 C 7.113281 -7.734375 7.1875 -7.660156 7.1875 -7.515625 L 7.1875 -7.28125 C 7.1875 -7.132812 7.253906 -7.0625 7.390625 -7.0625 L 7.640625 -7.0625 C 7.773438 -7.0625 7.84375 -6.992188 7.84375 -6.859375 L 7.84375 -4.953125 C 7.84375 -4.816406 7.773438 -4.75 7.640625 -4.75 L 5.84375 -4.75 C 5.707031 -4.75 5.640625 -4.816406 5.640625 -4.953125 L 5.640625 -5.203125 C 5.640625 -5.335938 5.566406 -5.40625 5.421875 -5.40625 L 5.1875 -5.40625 C 5.039062 -5.40625 4.96875 -5.476562 4.96875 -5.625 L 4.96875 -6.859375 C 4.96875 -6.992188 4.898438 -7.0625 4.765625 -7.0625 L 4.515625 -7.0625 C 4.378906 -7.0625 4.3125 -6.992188 4.3125 -6.859375 L 4.3125 -6.609375 C 4.3125 -6.472656 4.238281 -6.40625 4.09375 -6.40625 L 3.859375 -6.40625 C 3.710938 -6.40625 3.640625 -6.335938 3.640625 -6.203125 L 3.640625 -5.046875 C 3.640625 -4.910156 3.710938 -4.84375 3.859375 -4.84375 L 4.09375 -4.84375 C 4.238281 -4.84375 4.3125 -4.769531 4.3125 -4.625 L 4.3125 -4.390625 C 4.3125 -4.242188 4.378906 -4.171875 4.515625 -4.171875 L 6.984375 -4.171875 C 7.117188 -4.171875 7.1875 -4.101562 7.1875 -3.96875 L 7.1875 -3.71875 C 7.1875 -3.582031 7.257812 -3.515625 7.40625 -3.515625 L 7.640625 -3.515625 C 7.785156 -3.515625 7.859375 -3.441406 7.859375 -3.296875 L 7.859375 -0.875 C 7.859375 -0.726562 7.785156 -0.65625 7.640625 -0.65625 L 7.40625 -0.65625 C 7.257812 -0.65625 7.1875 -0.585938 7.1875 -0.453125 L 7.1875 -0.203125 C 7.1875 -0.0664062 7.117188 0 6.984375 0 L 1.53125 0 C 1.394531 0 1.328125 -0.0664062 1.328125 -0.203125 Z M 1.328125 -0.203125 "/></g></g></g><g fill="#e20684" fill-opacity="1"><g transform="translate(112.249495, 18.983898)"><g><path d="M 2.09375 -0.203125 L 2.09375 -0.453125 C 2.09375 -0.585938 2.023438 -0.65625 1.890625 -0.65625 L 1.640625 -0.65625 C 1.503906 -0.65625 1.4375 -0.726562 1.4375 -0.875 L 1.4375 -1.109375 C 1.4375 -1.253906 1.363281 -1.328125 1.21875 -1.328125 L 0.984375 -1.328125 C 0.835938 -1.328125 0.765625 -1.394531 0.765625 -1.53125 L 0.765625 -6.203125 C 0.765625 -6.335938 0.835938 -6.40625 0.984375 -6.40625 L 1.21875 -6.40625 C 1.363281 -6.40625 1.4375 -6.472656 1.4375 -6.609375 L 1.4375 -6.859375 C 1.4375 -6.992188 1.503906 -7.0625 1.640625 -7.0625 L 1.890625 -7.0625 C 2.023438 -7.0625 2.09375 -7.132812 2.09375 -7.28125 L 2.09375 -7.515625 C 2.09375 -7.660156 2.164062 -7.734375 2.3125 -7.734375 L 6.53125 -7.734375 C 6.664062 -7.734375 6.734375 -7.660156 6.734375 -7.515625 L 6.734375 -7.28125 C 6.734375 -7.132812 6.804688 -7.0625 6.953125 -7.0625 L 7.1875 -7.0625 C 7.332031 -7.0625 7.40625 -6.992188 7.40625 -6.859375 L 7.40625 -6.609375 C 7.40625 -6.472656 7.472656 -6.40625 7.609375 -6.40625 L 7.859375 -6.40625 C 7.992188 -6.40625 8.0625 -6.335938 8.0625 -6.203125 L 8.0625 -1.53125 C 8.0625 -1.394531 7.992188 -1.328125 7.859375 -1.328125 L 7.609375 -1.328125 C 7.472656 -1.328125 7.40625 -1.253906 7.40625 -1.109375 L 7.40625 -0.875 C 7.40625 -0.726562 7.332031 -0.65625 7.1875 -0.65625 L 6.953125 -0.65625 C 6.804688 -0.65625 6.734375 -0.585938 6.734375 -0.453125 L 6.734375 -0.203125 C 6.734375 -0.0664062 6.664062 0 6.53125 0 L 2.3125 0 C 2.164062 0 2.09375 -0.0664062 2.09375 -0.203125 Z M 4.625 -1.328125 L 4.875 -1.328125 C 5.007812 -1.328125 5.078125 -1.394531 5.078125 -1.53125 L 5.078125 -6.859375 C 5.078125 -6.992188 5.007812 -7.0625 4.875 -7.0625 L 4.625 -7.0625 C 4.488281 -7.0625 4.421875 -6.992188 4.421875 -6.859375 L 4.421875 -6.609375 C 4.421875 -6.472656 4.347656 -6.40625 4.203125 -6.40625 L 3.96875 -6.40625 C 3.820312 -6.40625 3.75 -6.335938 3.75 -6.203125 L 3.75 -0.875 C 3.75 -0.726562 3.820312 -0.65625 3.96875 -0.65625 L 4.203125 -0.65625 C 4.347656 -0.65625 4.421875 -0.726562 4.421875 -0.875 L 4.421875 -1.109375 C 4.421875 -1.253906 4.488281 -1.328125 4.625 -1.328125 Z M 4.625 -1.328125 "/></g></g></g><g fill="#e20684" fill-opacity="1"><g transform="translate(121.08344, 18.983898)"><g><path d="M 0.765625 -0.203125 L 0.765625 -7.515625 C 0.765625 -7.660156 0.835938 -7.734375 0.984375 -7.734375 L 2.546875 -7.734375 C 2.691406 -7.734375 2.765625 -7.660156 2.765625 -7.515625 L 2.765625 -6.609375 C 2.765625 -6.472656 2.832031 -6.40625 2.96875 -6.40625 L 3.21875 -6.40625 C 3.351562 -6.40625 3.421875 -6.472656 3.421875 -6.609375 L 3.421875 -6.859375 C 3.421875 -6.992188 3.492188 -7.0625 3.640625 -7.0625 L 3.875 -7.0625 C 4.019531 -7.0625 4.09375 -7.132812 4.09375 -7.28125 L 4.09375 -7.515625 C 4.09375 -7.660156 4.160156 -7.734375 4.296875 -7.734375 L 7.1875 -7.734375 C 7.332031 -7.734375 7.40625 -7.660156 7.40625 -7.515625 L 7.40625 -7.28125 C 7.40625 -7.132812 7.472656 -7.0625 7.609375 -7.0625 L 7.859375 -7.0625 C 7.910156 -7.0625 7.9375 -7.0625 7.9375 -7.0625 C 7.9375 -7.0625 7.910156 -7.0625 7.859375 -7.0625 L 7.609375 -7.0625 C 7.546875 -7.0625 7.515625 -7.0625 7.515625 -7.0625 C 7.515625 -7.0625 7.546875 -7.0625 7.609375 -7.0625 L 7.859375 -7.0625 C 7.992188 -7.0625 8.0625 -6.992188 8.0625 -6.859375 L 8.0625 -0.203125 C 8.0625 -0.0664062 7.992188 0 7.859375 0 L 5.296875 0 C 5.148438 0 5.078125 -0.0664062 5.078125 -0.203125 L 5.078125 -6.859375 C 5.078125 -6.992188 5.007812 -7.0625 4.875 -7.0625 L 4.625 -7.0625 C 4.488281 -7.0625 4.421875 -6.992188 4.421875 -6.859375 L 4.421875 -6.609375 C 4.421875 -6.472656 4.347656 -6.40625 4.203125 -6.40625 L 3.96875 -6.40625 C 3.820312 -6.40625 3.75 -6.335938 3.75 -6.203125 L 3.75 -0.203125 C 3.75 -0.0664062 3.679688 0 3.546875 0 L 0.984375 0 C 0.835938 0 0.765625 -0.0664062 0.765625 -0.203125 Z M 0.765625 -0.203125 "/></g></g></g><g fill="#44eef4" fill-opacity="1"><g transform="translate(129.920906, 18.983898)"><g><path d="M 1.296875 2.078125 L 0.390625 2.078125 C 0.242188 2.078125 0.171875 2.003906 0.171875 1.859375 L 0.171875 1.625 C 0.171875 1.476562 0.242188 1.40625 0.390625 1.40625 L 0.625 1.40625 C 0.769531 1.40625 0.84375 1.335938 0.84375 1.203125 L 0.84375 0.96875 C 0.84375 0.820312 0.910156 0.75 1.046875 0.75 L 1.296875 0.75 C 1.429688 0.75 1.5 0.679688 1.5 0.546875 L 1.5 0.296875 C 1.5 0.160156 1.570312 0.09375 1.71875 0.09375 L 1.953125 0.09375 C 2.097656 0.09375 2.171875 0.0195312 2.171875 -0.125 L 2.171875 -2.921875 C 2.171875 -3.066406 2.238281 -3.140625 2.375 -3.140625 L 2.625 -3.140625 C 2.757812 -3.140625 2.828125 -3.207031 2.828125 -3.34375 L 2.828125 -3.59375 C 2.828125 -3.726562 2.894531 -3.796875 3.03125 -3.796875 L 3.28125 -3.796875 C 3.414062 -3.796875 3.484375 -3.867188 3.484375 -4.015625 L 3.484375 -4.25 C 3.484375 -4.394531 3.414062 -4.46875 3.28125 -4.46875 L 3.03125 -4.46875 C 2.894531 -4.46875 2.828125 -4.535156 2.828125 -4.671875 L 2.828125 -4.921875 C 2.828125 -5.054688 2.757812 -5.125 2.625 -5.125 L 2.375 -5.125 C 2.238281 -5.125 2.171875 -5.191406 2.171875 -5.328125 L 2.171875 -8.140625 C 2.171875 -8.273438 2.097656 -8.34375 1.953125 -8.34375 L 1.71875 -8.34375 C 1.570312 -8.34375 1.5 -8.414062 1.5 -8.5625 L 1.5 -8.796875 C 1.5 -8.941406 1.429688 -9.015625 1.296875 -9.015625 L 1.046875 -9.015625 C 0.910156 -9.015625 0.84375 -9.082031 0.84375 -9.21875 L 0.84375 -9.46875 C 0.84375 -9.601562 0.769531 -9.671875 0.625 -9.671875 L 0.390625 -9.671875 C 0.242188 -9.671875 0.171875 -9.742188 0.171875 -9.890625 L 0.171875 -10.125 C 0.171875 -10.269531 0.242188 -10.34375 0.390625 -10.34375 L 1.296875 -10.34375 C 1.429688 -10.34375 1.5 -10.269531 1.5 -10.125 L 1.5 -9.890625 C 1.5 -9.742188 1.570312 -9.671875 1.71875 -9.671875 L 1.953125 -9.671875 C 2.097656 -9.671875 2.171875 -9.601562 2.171875 -9.46875 L 2.171875 -9.21875 C 2.171875 -9.082031 2.238281 -9.015625 2.375 -9.015625 L 2.625 -9.015625 C 2.757812 -9.015625 2.828125 -8.941406 2.828125 -8.796875 L 2.828125 -6 C 2.828125 -5.851562 2.894531 -5.78125 3.03125 -5.78125 L 3.28125 -5.78125 C 3.414062 -5.78125 3.484375 -5.710938 3.484375 -5.578125 L 3.484375 -5.328125 C 3.484375 -5.191406 3.554688 -5.125 3.703125 -5.125 L 3.9375 -5.125 C 4.082031 -5.125 4.15625 -5.054688 4.15625 -4.921875 L 4.15625 -3.34375 C 4.15625 -3.207031 4.082031 -3.140625 3.9375 -3.140625 L 3.703125 -3.140625 C 3.554688 -3.140625 3.484375 -3.066406 3.484375 -2.921875 L 3.484375 -2.6875 C 3.484375 -2.539062 3.414062 -2.46875 3.28125 -2.46875 L 3.03125 -2.46875 C 2.894531 -2.46875 2.828125 -2.398438 2.828125 -2.265625 L 2.828125 0.546875 C 2.828125 0.679688 2.757812 0.75 2.625 0.75 L 2.375 0.75 C 2.238281 0.75 2.171875 0.820312 2.171875 0.96875 L 2.171875 1.203125 C 2.171875 1.335938 2.097656 1.40625 1.953125 1.40625 L 1.71875 1.40625 C 1.570312 1.40625 1.5 1.476562 1.5 1.625 L 1.5 1.859375 C 1.5 2.003906 1.429688 2.078125 1.296875 2.078125 Z M 1.296875 2.078125 "/></g></g></g></svg>